<?xml version="1.0" encoding="UTF-8" standalone="no"?>
<!DOCTYPE svg PUBLIC "-//W3C//DTD SVG 1.1//EN"
 "http://www.w3.org/Graphics/SVG/1.1/DTD/svg11.dtd">
<!-- Generated by graphviz version 2.43.0 (0)
 -->
<!-- Title: mini_soc Pages: 1 -->
<svg width="1204pt" height="217pt"
 viewBox="0.00 0.00 1203.89 216.50" xmlns="http://www.w3.org/2000/svg" xmlns:xlink="http://www.w3.org/1999/xlink">
<g id="graph0" class="graph" transform="scale(1 1) rotate(0) translate(4 212.5)">
<title>mini_soc</title>
<polygon fill="white" stroke="transparent" points="-4,4 -4,-212.5 1199.89,-212.5 1199.89,4 -4,4"/>
<text text-anchor="middle" x="597.95" y="-7.8" font-family="Times,serif" font-size="14.00">mini_soc</text>
<!-- n1 -->
<g id="node1" class="node">
<title>n1</title>
<polygon fill="none" stroke="black" points="820.9,-131 758.4,-113 820.9,-95 883.41,-113 820.9,-131"/>
<text text-anchor="middle" x="820.9" y="-109.3" font-family="Times,serif" font-size="14.00">alu_out</text>
</g>
<!-- c17 -->
<g id="node12" class="node">
<title>c17</title>
<polygon fill="none" stroke="black" points="919.41,-78.5 919.41,-147.5 1061.41,-147.5 1061.41,-78.5 919.41,-78.5"/>
<text text-anchor="middle" x="938.91" y="-132.3" font-family="Times,serif" font-size="14.00">in0</text>
<polyline fill="none" stroke="black" points="919.41,-124.5 958.41,-124.5 "/>
<text text-anchor="middle" x="938.91" y="-109.3" font-family="Times,serif" font-size="14.00">in1</text>
<polyline fill="none" stroke="black" points="919.41,-101.5 958.41,-101.5 "/>
<text text-anchor="middle" x="938.91" y="-86.3" font-family="Times,serif" font-size="14.00">sel</text>
<polyline fill="none" stroke="black" points="958.41,-78.5 958.41,-147.5 "/>
<text text-anchor="middle" x="989.91" y="-116.8" font-family="Times,serif" font-size="14.00">u_mux</text>
<text text-anchor="middle" x="989.91" y="-101.8" font-family="Times,serif" font-size="14.00">mux</text>
<polyline fill="none" stroke="black" points="1021.41,-78.5 1021.41,-147.5 "/>
<text text-anchor="middle" x="1041.41" y="-109.3" font-family="Times,serif" font-size="14.00">out</text>
</g>
<!-- n1&#45;&gt;c17 -->
<g id="edge5" class="edge">
<title>n1:e&#45;&gt;c17:w</title>
<path fill="none" stroke="black" stroke-width="3" d="M883.41,-113C895.41,-113 900.66,-113 909.28,-113"/>
<polygon fill="black" stroke="black" stroke-width="3" points="909.41,-116.5 919.41,-113 909.4,-109.5 909.41,-116.5"/>
</g>
<!-- n2 -->
<g id="node2" class="node">
<title>n2</title>
<polygon fill="none" stroke="black" points="536.63,-33.54 536.63,-48.46 509.71,-59 471.64,-59 444.72,-48.46 444.72,-33.54 471.64,-23 509.71,-23 536.63,-33.54"/>
<text text-anchor="middle" x="490.67" y="-37.3" font-family="Times,serif" font-size="14.00">alu_sel</text>
</g>
<!-- c12 -->
<g id="node8" class="node">
<title>c12</title>
<polygon fill="none" stroke="black" points="572.4,-68.5 572.4,-137.5 722.4,-137.5 722.4,-68.5 572.4,-68.5"/>
<text text-anchor="middle" x="590.9" y="-122.3" font-family="Times,serif" font-size="14.00">a</text>
<polyline fill="none" stroke="black" points="572.4,-114.5 609.4,-114.5 "/>
<text text-anchor="middle" x="590.9" y="-99.3" font-family="Times,serif" font-size="14.00">b</text>
<polyline fill="none" stroke="black" points="572.4,-91.5 609.4,-91.5 "/>
<text text-anchor="middle" x="590.9" y="-76.3" font-family="Times,serif" font-size="14.00">sel</text>
<polyline fill="none" stroke="black" points="609.4,-68.5 609.4,-137.5 "/>
<text text-anchor="middle" x="636.4" y="-106.8" font-family="Times,serif" font-size="14.00">u_alu</text>
<text text-anchor="middle" x="636.4" y="-91.8" font-family="Times,serif" font-size="14.00">alu</text>
<polyline fill="none" stroke="black" points="663.4,-68.5 663.4,-137.5 "/>
<text text-anchor="middle" x="692.9" y="-99.3" font-family="Times,serif" font-size="14.00">result</text>
</g>
<!-- n2&#45;&gt;c12 -->
<g id="edge6" class="edge">
<title>n2:e&#45;&gt;c12:w</title>
<path fill="none" stroke="black" d="M536.4,-41C555.75,-41 551.71,-67.24 562.65,-76.67"/>
<polygon fill="black" stroke="black" points="561.81,-80.09 572.4,-80 564.06,-73.46 561.81,-80.09"/>
</g>
<!-- n3 -->
<g id="node3" class="node">
<title>n3</title>
<polygon fill="none" stroke="black" points="54,-170.54 54,-185.46 38.18,-196 15.82,-196 0,-185.46 0,-170.54 15.82,-160 38.18,-160 54,-170.54"/>
<text text-anchor="middle" x="27" y="-174.3" font-family="Times,serif" font-size="14.00">clk</text>
</g>
<!-- c13 -->
<g id="node11" class="node">
<title>c13</title>
<polygon fill="none" stroke="black" points="90,-128 90,-174 270,-174 270,-128 90,-128"/>
<text text-anchor="middle" x="108.5" y="-158.8" font-family="Times,serif" font-size="14.00">clk</text>
<polyline fill="none" stroke="black" points="90,-151 127,-151 "/>
<text text-anchor="middle" x="108.5" y="-135.8" font-family="Times,serif" font-size="14.00">rst</text>
<polyline fill="none" stroke="black" points="127,-128 127,-174 "/>
<text text-anchor="middle" x="170.5" y="-154.8" font-family="Times,serif" font-size="14.00">u_counter</text>
<text text-anchor="middle" x="170.5" y="-139.8" font-family="Times,serif" font-size="14.00">counter</text>
<polyline fill="none" stroke="black" points="214,-128 214,-174 "/>
<text text-anchor="middle" x="242" y="-147.3" font-family="Times,serif" font-size="14.00">count</text>
</g>
<!-- n3&#45;&gt;c13 -->
<g id="edge7" class="edge">
<title>n3:e&#45;&gt;c13:w</title>
<path fill="none" stroke="black" d="M54,-178C67.27,-178 71.16,-169.21 80.04,-165.09"/>
<polygon fill="black" stroke="black" points="80.93,-168.47 90,-163 79.49,-161.62 80.93,-168.47"/>
</g>
<!-- n4 -->
<g id="node4" class="node">
<title>n4</title>
<polygon fill="none" stroke="black" points="357.47,-169 306.03,-151 357.47,-133 408.92,-151 357.47,-169"/>
<text text-anchor="middle" x="357.47" y="-147.3" font-family="Times,serif" font-size="14.00">count</text>
</g>
<!-- x0 -->
<g id="node9" class="node">
<title>x0</title>
<path fill="none" stroke="black" d="M465.17,-133C465.17,-133 516.17,-133 516.17,-133 522.17,-133 528.17,-139 528.17,-145 528.17,-145 528.17,-157 528.17,-157 528.17,-163 522.17,-169 516.17,-169 516.17,-169 465.17,-169 465.17,-169 459.17,-169 453.17,-163 453.17,-157 453.17,-157 453.17,-145 453.17,-145 453.17,-139 459.17,-133 465.17,-133"/>
<text text-anchor="middle" x="490.67" y="-147.3" font-family="Times,serif" font-size="14.00">3:2 &#45; 1:0</text>
</g>
<!-- n4&#45;&gt;x0 -->
<g id="edge9" class="edge">
<title>n4:e&#45;&gt;x0:w</title>
<path fill="none" stroke="black" stroke-width="3" d="M408.95,-151C424.08,-151 430.17,-151 441.62,-151"/>
<polygon fill="black" stroke="black" stroke-width="3" points="441.67,-154.5 451.67,-151 441.67,-147.5 441.67,-154.5"/>
</g>
<!-- x1 -->
<g id="node10" class="node">
<title>x1</title>
<path fill="none" stroke="black" d="M465.17,-78C465.17,-78 516.17,-78 516.17,-78 522.17,-78 528.17,-84 528.17,-90 528.17,-90 528.17,-102 528.17,-102 528.17,-108 522.17,-114 516.17,-114 516.17,-114 465.17,-114 465.17,-114 459.17,-114 453.17,-108 453.17,-102 453.17,-102 453.17,-90 453.17,-90 453.17,-84 459.17,-78 465.17,-78"/>
<text text-anchor="middle" x="490.67" y="-92.3" font-family="Times,serif" font-size="14.00">1:0 &#45; 1:0</text>
</g>
<!-- n4&#45;&gt;x1 -->
<g id="edge10" class="edge">
<title>n4:e&#45;&gt;x1:w</title>
<path fill="none" stroke="black" stroke-width="3" d="M408.95,-151C435.79,-151 424.93,-109.64 441.76,-98.65"/>
<polygon fill="black" stroke="black" stroke-width="3" points="442.92,-101.97 451.67,-96 441.11,-95.2 442.92,-101.97"/>
</g>
<!-- x2 -->
<g id="node13" class="node">
<title>x2</title>
<path fill="none" stroke="black" d="M621.9,-172C621.9,-172 672.9,-172 672.9,-172 678.9,-172 684.9,-178 684.9,-184 684.9,-184 684.9,-196 684.9,-196 684.9,-202 678.9,-208 672.9,-208 672.9,-208 621.9,-208 621.9,-208 615.9,-208 609.9,-202 609.9,-196 609.9,-196 609.9,-184 609.9,-184 609.9,-178 615.9,-172 621.9,-172"/>
<text text-anchor="middle" x="647.4" y="-186.3" font-family="Times,serif" font-size="14.00">3:2 &#45; 1:0</text>
</g>
<!-- n4&#45;&gt;x2 -->
<g id="edge11" class="edge">
<title>n4:e&#45;&gt;x2:w</title>
<path fill="none" stroke="black" stroke-width="3" d="M408.95,-151C429.22,-151 426,-171.78 444.95,-179 509.66,-203.66 533.27,-191.36 598.08,-190.1"/>
<polygon fill="black" stroke="black" stroke-width="3" points="598.43,-193.6 608.4,-190 598.37,-186.6 598.43,-193.6"/>
</g>
<!-- n5 -->
<g id="node5" class="node">
<title>n5</title>
<polygon fill="none" stroke="black" points="873.02,-51.54 873.02,-66.46 842.49,-77 799.31,-77 768.79,-66.46 768.79,-51.54 799.31,-41 842.49,-41 873.02,-51.54"/>
<text text-anchor="middle" x="820.9" y="-55.3" font-family="Times,serif" font-size="14.00">mux_sel</text>
</g>
<!-- n5&#45;&gt;c17 -->
<g id="edge12" class="edge">
<title>n5:e&#45;&gt;c17:w</title>
<path fill="none" stroke="black" d="M873.9,-59C894.36,-59 895.31,-80.66 909.37,-87.77"/>
<polygon fill="black" stroke="black" points="908.88,-91.25 919.41,-90 910.4,-84.41 908.88,-91.25"/>
</g>
<!-- n6 -->
<g id="node6" class="node">
<title>n6</title>
<polygon fill="none" stroke="black" points="54,-116.54 54,-131.46 38.18,-142 15.82,-142 0,-131.46 0,-116.54 15.82,-106 38.18,-106 54,-116.54"/>
<text text-anchor="middle" x="27" y="-120.3" font-family="Times,serif" font-size="14.00">rst</text>
</g>
<!-- n6&#45;&gt;c13 -->
<g id="edge13" class="edge">
<title>n6:e&#45;&gt;c13:w</title>
<path fill="none" stroke="black" d="M54,-124C67.27,-124 71.16,-132.79 80.04,-136.91"/>
<polygon fill="black" stroke="black" points="79.49,-140.38 90,-139 80.93,-133.53 79.49,-140.38"/>
</g>
<!-- n7 -->
<g id="node7" class="node">
<title>n7</title>
<polygon fill="none" stroke="black" points="1196.14,-105.54 1196.14,-120.46 1167.15,-131 1126.15,-131 1097.16,-120.46 1097.16,-105.54 1126.15,-95 1167.15,-95 1196.14,-105.54"/>
<text text-anchor="middle" x="1146.65" y="-109.3" font-family="Times,serif" font-size="14.00">soc_out</text>
</g>
<!-- c12&#45;&gt;n1 -->
<g id="edge4" class="edge">
<title>c12:e&#45;&gt;n1:w</title>
<path fill="none" stroke="black" stroke-width="3" d="M722.4,-103C734.98,-103 739.63,-108.74 748.37,-111.52"/>
<polygon fill="black" stroke="black" stroke-width="3" points="748,-115.01 758.4,-113 749.02,-108.08 748,-115.01"/>
</g>
<!-- x0&#45;&gt;c12 -->
<g id="edge1" class="edge">
<title>x0:e&#45;&gt;c12:w</title>
<path fill="none" stroke="black" stroke-width="3" d="M541.58,-147.73C549.2,-142.91 552.96,-133.96 560.61,-129.19"/>
<polygon fill="none" stroke="black" stroke-width="3" points="541.24,-147.82 536.52,-153.27 529.67,-151 534.4,-145.55 541.24,-147.82"/>
<polygon fill="none" stroke="black" stroke-width="3" points="560.82,-129.14 565.56,-123.71 572.4,-126 567.65,-131.43 560.82,-129.14"/>
</g>
<!-- x1&#45;&gt;c12 -->
<g id="edge2" class="edge">
<title>x1:e&#45;&gt;c12:w</title>
<path fill="none" stroke="black" stroke-width="3" d="M541.76,-97.09C548.46,-98.39 553.35,-100.53 559.99,-101.84"/>
<polygon fill="none" stroke="black" stroke-width="3" points="541.62,-97.08 535.29,-100.52 529.67,-96 536.01,-92.56 541.62,-97.08"/>
<polygon fill="none" stroke="black" stroke-width="3" points="560.45,-101.89 566.8,-98.46 572.4,-103 566.05,-106.43 560.45,-101.89"/>
</g>
<!-- c13&#45;&gt;n4 -->
<g id="edge8" class="edge">
<title>c13:e&#45;&gt;n4:w</title>
<path fill="none" stroke="black" stroke-width="3" d="M270,-151C282,-151 287.25,-151 295.88,-151"/>
<polygon fill="black" stroke="black" stroke-width="3" points="296,-154.5 306,-151 296,-147.5 296,-154.5"/>
</g>
<!-- c17&#45;&gt;n7 -->
<g id="edge14" class="edge">
<title>c17:e&#45;&gt;n7:w</title>
<path fill="none" stroke="black" stroke-width="3" d="M1061.41,-113C1073.41,-113 1078.66,-113 1087.28,-113"/>
<polygon fill="black" stroke="black" stroke-width="3" points="1087.41,-116.5 1097.41,-113 1087.4,-109.5 1087.41,-116.5"/>
</g>
<!-- x2&#45;&gt;c17 -->
<g id="edge3" class="edge">
<title>x2:e&#45;&gt;c17:w</title>
<path fill="none" stroke="black" stroke-width="3" d="M698.65,-189.24C752.67,-183.16 853.52,-142.71 907.4,-136.74"/>
<polygon fill="none" stroke="black" stroke-width="3" points="698.38,-189.25 692.64,-193.62 686.4,-190 692.14,-185.63 698.38,-189.25"/>
<polygon fill="none" stroke="black" stroke-width="3" points="907.43,-136.73 913.17,-132.37 919.41,-136 913.66,-140.36 907.43,-136.73"/>
</g>
</g>
</svg>
